<svg xmlns="http://www.w3.org/2000/svg" version="1.1" xmlns:xlink="http://www.w3.org/1999/xlink" xmlns:svgjs="http://svgjs.dev/svgjs" width="2000" height="232" viewBox="0 0 2000 232"><g transform="matrix(1,0,0,1,-1.2121212121212466,-1.1534905698197093)"><svg viewBox="0 0 396 46" data-background-color="#ffffff" preserveAspectRatio="xMidYMid meet" height="232" width="2000" xmlns="http://www.w3.org/2000/svg" xmlns:xlink="http://www.w3.org/1999/xlink"><defs></defs><g id="tight-bounds" transform="matrix(1,0,0,1,0.2400000000000091,0.22870933711942598)"><svg viewBox="0 0 395.52 45.54258132576113" height="45.54258132576113" width="395.52"><g><svg viewBox="0 0 471.9802325842738 54.34667811140003" height="45.54258132576113" width="395.52"><g><rect width="3.5463382907799312" height="39.52128183933214" x="63.63028620244697" y="7.412698136033946" fill="#ffffff" opacity="1" stroke-width="0" stroke="transparent" fill-opacity="1" class="rect-o-0" data-fill-palette-color="primary" rx="1%" id="o-0" data-palette-color="#919591"></rect></g><g transform="matrix(1,0,0,1,76.46023258427384,7.511009782400443)"><svg viewBox="0 0 395.5199999999999 39.324658546599146" height="39.324658546599146" width="395.5199999999999"><g><svg viewBox="0 0 395.5199999999999 39.324658546599146" height="39.324658546599146" width="395.5199999999999"><g><svg viewBox="0 0 395.5199999999999 39.324658546599146" height="39.324658546599146" width="395.5199999999999"><g transform="matrix(1,0,0,1,0,0)"><svg width="395.5199999999999" viewBox="7.079999923706055 -35.060001373291016 352.8600158691406 35.47999954223633" height="39.324658546599146" data-palette-color="#919591"><g class="undefined-text-0" data-fill-palette-color="primary" id="text-0"><path d="M17.97-31.03L11.23-31.03 11.23-3.66 16.28-3.66Q17.38-3.66 18.1-3.69 18.82-3.71 20.06-3.83 21.29-3.96 22.18-4.2 23.07-4.44 24.21-4.91 25.34-5.37 26.22-6.03 27.1-6.69 27.98-7.71 28.86-8.74 29.52-10.03L29.52-10.03Q31.13-13.13 31.13-17.58L31.13-17.58Q31.13-20.65 30.24-23.13 29.35-25.61 27.87-27.16 26.39-28.71 24.72-29.61 23.05-30.52 21.22-30.83L21.22-30.83Q20.14-31.03 17.97-31.03L17.97-31.03ZM7.08-34.69L17.82-34.69Q21.19-34.69 23.95-34.02 26.71-33.35 28.58-32.13 30.44-30.91 31.79-29.37 33.13-27.83 33.87-25.94 34.62-24.05 34.96-22.22 35.3-20.39 35.3-18.41L35.3-18.41Q35.3-16.14 34.96-14.04 34.62-11.94 33.78-9.77 32.93-7.59 31.63-5.87 30.32-4.15 28.25-2.77 26.17-1.39 23.54-0.73L23.54-0.73Q22.17-0.39 20.48-0.22 18.8-0.05 17.7-0.02 16.6 0 14.6 0L14.6 0 7.08 0 7.08-34.69ZM42.38 0L54.71-34.69 59.42-34.69 71.75 0 67.55 0 64.04-10.08 49.73-10.08 46.21 0 42.38 0ZM62.77-13.72L56.88-30.64 50.97-13.72 62.77-13.72ZM88.47 0L76.39-34.69 81.32-34.69 91.23-4.39 101.14-34.69 105.71-34.69 93.62 0 88.47 0ZM114.98 0L114.98-34.69 119.13-34.69 119.13 0 114.98 0ZM142.96-31.03L136.22-31.03 136.22-3.66 141.27-3.66Q142.37-3.66 143.09-3.69 143.81-3.71 145.05-3.83 146.28-3.96 147.17-4.2 148.06-4.44 149.2-4.91 150.33-5.37 151.21-6.03 152.09-6.69 152.97-7.71 153.85-8.74 154.51-10.03L154.51-10.03Q156.12-13.13 156.12-17.58L156.12-17.58Q156.12-20.65 155.23-23.13 154.34-25.61 152.86-27.16 151.38-28.71 149.71-29.61 148.04-30.52 146.21-30.83L146.21-30.83Q145.13-31.03 142.96-31.03L142.96-31.03ZM132.07-34.69L142.81-34.69Q146.18-34.69 148.94-34.02 151.7-33.35 153.57-32.13 155.43-30.91 156.78-29.37 158.12-27.83 158.86-25.94 159.61-24.05 159.95-22.22 160.29-20.39 160.29-18.41L160.29-18.41Q160.29-16.14 159.95-14.04 159.61-11.94 158.77-9.77 157.92-7.59 156.62-5.87 155.31-4.15 153.24-2.77 151.16-1.39 148.53-0.73L148.53-0.73Q147.16-0.39 145.47-0.22 143.79-0.05 142.69-0.02 141.59 0 139.59 0L139.59 0 132.07 0 132.07-34.69Z" fill="#ffffff" data-fill-palette-color="primary"></path><path d="M163.46 0L175.79-34.69 180.5-34.69 192.83 0 188.63 0 185.12-10.08 170.81-10.08 167.3 0 163.46 0ZM183.85-13.72L177.97-30.64 172.06-13.72 183.85-13.72ZM211.97-31.52L205.28-31.52 205.28-19.87Q205.75-19.9 206.89-19.91 208.04-19.92 208.68-19.93 209.31-19.95 210.46-20.03 211.61-20.12 212.3-20.23 213-20.34 213.99-20.57 214.98-20.8 215.6-21.11 216.22-21.41 216.92-21.89 217.61-22.36 218-22.95 218.39-23.54 218.65-24.35 218.91-25.17 218.91-26.15L218.91-26.15Q218.91-26.88 218.76-27.54 218.61-28.2 218.15-28.96 217.68-29.71 216.95-30.25 216.22-30.79 214.94-31.15 213.66-31.52 211.97-31.52L211.97-31.52ZM205.28-16.65L205.28-16.65 205.28-3.66 211.75-3.66Q212.63-3.66 213.23-3.67 213.83-3.69 214.95-3.82 216.07-3.96 216.87-4.19 217.66-4.42 218.64-4.9 219.61-5.37 220.21-6.03 220.81-6.69 221.23-7.73 221.64-8.76 221.64-10.08L221.64-10.08Q221.64-13.33 219.13-15.16 216.61-16.99 212.36-16.99L212.36-16.99Q211.9-16.99 205.28-16.65ZM201.13 0L201.13-34.69 213.36-34.69Q215.15-34.69 216.62-34.31 218.1-33.94 219.06-33.35 220.03-32.76 220.77-31.96 221.52-31.15 221.91-30.4 222.3-29.64 222.54-28.78 222.79-27.93 222.85-27.38 222.91-26.83 222.91-26.34L222.91-26.34Q222.91-24.22 221.47-22.11 220.03-20 218.42-19.38L218.42-19.38Q221.64-18.8 223.7-16.27 225.77-13.75 225.77-10.52L225.77-10.52Q225.77-9.77 225.63-8.94 225.5-8.11 225.11-7.06 224.72-6.01 224.11-5.05 223.5-4.1 222.45-3.16 221.4-2.22 220.04-1.54 218.69-0.85 216.72-0.43 214.76 0 212.41 0L212.41 0 201.13 0ZM256.23 0L235.9 0 235.9-34.69 256.23-34.69 256.23-31.03 240.05-31.03 240.05-19.7 254.89-19.7 254.89-16.04 240.05-16.04 240.05-3.66 256.23-3.66 256.23 0ZM274.13-10.18L274.13-34.69 278.28-34.69 278.28-10.4Q278.28-7.69 277.79-5.88 277.3-4.08 275.88-2.59L275.88-2.59Q273.03 0.42 267.61 0.42L267.61 0.42Q265.17 0.42 262.82-0.17L262.82-0.17 263.48-3.64Q265.12-3.25 266.92-3.25L266.92-3.25Q268.41-3.25 269.58-3.55 270.76-3.86 271.5-4.28 272.25-4.71 272.78-5.41 273.32-6.1 273.56-6.65 273.81-7.2 273.95-8 274.1-8.79 274.11-9.18 274.13-9.57 274.13-10.18L274.13-10.18ZM304.98-35.06L304.98-35.06Q308.42-35.06 311.42-33.85 314.41-32.64 316.59-30.44 318.78-28.25 320.02-24.96 321.27-21.68 321.27-17.75L321.27-17.75Q321.27-12.43 319.15-8.29 317.04-4.15 313.3-1.89 309.55 0.37 304.81 0.37L304.81 0.37Q301.69 0.37 298.83-0.74 295.97-1.86 293.68-3.98 291.38-6.1 290.02-9.53 288.65-12.96 288.65-17.26L288.65-17.26Q288.65-21.29 289.89-24.63 291.14-27.98 293.31-30.26 295.49-32.54 298.49-33.8 301.49-35.06 304.98-35.06ZM304.76-31.42L304.76-31.42Q302.54-31.42 300.49-30.59 298.44-29.76 296.72-28.16 295-26.56 293.96-23.86 292.92-21.17 292.92-17.77L292.92-17.77Q292.92-14.53 293.87-11.78 294.83-9.03 296.46-7.18 298.1-5.32 300.33-4.3 302.57-3.27 305.13-3.27L305.13-3.27Q306.86-3.27 308.53-3.78 310.21-4.3 311.74-5.41 313.28-6.52 314.44-8.13 315.6-9.74 316.3-12.11 316.99-14.48 316.99-17.31L316.99-17.31Q316.99-20.19 316.26-22.58 315.53-24.98 314.32-26.59 313.11-28.2 311.51-29.31 309.91-30.42 308.22-30.92 306.52-31.42 304.76-31.42ZM331.64 0L331.64-34.69 336.89-34.69 355.79-5.66 355.79-34.69 359.94-34.69 359.94 0 354.69 0 335.79-29.08 335.79 0 331.64 0Z" fill="#ffffff" data-fill-palette-color="secondary"></path></g></svg></g></svg></g></svg></g></svg></g><g><svg viewBox="0 0 54.34667811140003 54.34667811140003" height="54.34667811140003" width="54.34667811140003"><g><svg xmlns="http://www.w3.org/2000/svg" xmlns:xlink="http://www.w3.org/1999/xlink" version="1.1" x="0" y="0" viewBox="5 5 90 90" enable-background="new 0 0 100 100" xml:space="preserve" height="54.34667811140003" width="54.34667811140003" class="icon-icon-0" data-fill-palette-color="accent" id="icon-0"><path d="M50 5C25.1 5 5 25.1 5 50c0 24.8 20.1 45 45 45 24.9 0 45-20.2 45-45C95 25.1 74.9 5 50 5L50 5zM50 77c-14.9 0-27-12.1-27-27 0-14.9 12.1-27 27-27 14.9 0 27 12.1 27 27C77 64.9 64.9 77 50 77L50 77zM40.3 30.7C34 33.9 29.5 40 28.6 47.3h8C36.8 40.7 38.2 35 40.3 30.7L40.3 30.7zM50 70.7c3.1 0 7.3-6.8 8-18H42C42.7 63.9 46.9 70.7 50 70.7L50 70.7zM28.6 52.7c1 7.5 5.7 13.8 12.4 16.9-2.4-4.2-4-10-4.4-16.9H28.6zM59.7 30.7c2.1 4.3 3.5 10 3.8 16.6h7.9C70.5 40 66 33.9 59.7 30.7L59.7 30.7zM50 28.4c-3.2 0-7.5 7.1-8 18.9H58C57.5 35.5 53.2 28.4 50 28.4L50 28.4zM59 69.5c6.6-3.1 11.4-9.3 12.4-16.9h-8C63 59.5 61.5 65.4 59 69.5z" fill="#ffffff" data-fill-palette-color="accent"></path></svg></g></svg></g></svg></g></svg><rect width="395.52" height="45.54258132576113" fill="none" stroke="none" visibility="hidden"></rect></g></svg></g></svg>