<svg id="visual" viewBox="0 0 900 200" width="900" height="200" xmlns="http://www.w3.org/2000/svg" xmlns:xlink="http://www.w3.org/1999/xlink" version="1.1"><rect x="0" y="0" width="900" height="200" fill="#164ca3"></rect><path d="M0 56L21.5 60C43 64 86 72 128.8 76.8C171.7 81.7 214.3 83.3 257.2 76.5C300 69.7 343 54.3 385.8 47.5C428.7 40.7 471.3 42.3 514.2 55.2C557 68 600 92 642.8 104.5C685.7 117 728.3 118 771.2 109.7C814 101.3 857 83.7 878.5 74.8L900 66L900 201L878.5 201C857 201 814 201 771.2 201C728.3 201 685.7 201 642.8 201C600 201 557 201 514.2 201C471.3 201 428.7 201 385.8 201C343 201 300 201 257.2 201C214.3 201 171.7 201 128.8 201C86 201 43 201 21.5 201L0 201Z" fill="#192542"></path><path d="M0 128L21.5 123.7C43 119.3 86 110.7 128.8 106.7C171.7 102.7 214.3 103.3 257.2 99.8C300 96.3 343 88.7 385.8 92.5C428.7 96.3 471.3 111.7 514.2 122.3C557 133 600 139 642.8 135C685.7 131 728.3 117 771.2 112.7C814 108.3 857 113.7 878.5 116.3L900 119L900 201L878.5 201C857 201 814 201 771.2 201C728.3 201 685.7 201 642.8 201C600 201 557 201 514.2 201C471.3 201 428.7 201 385.8 201C343 201 300 201 257.2 201C214.3 201 171.7 201 128.8 201C86 201 43 201 21.5 201L0 201Z" fill="#141e36"></path><path d="M0 170L21.5 162.8C43 155.7 86 141.3 128.8 138.8C171.7 136.3 214.3 145.7 257.2 155C300 164.3 343 173.7 385.8 172.7C428.7 171.7 471.3 160.3 514.2 152.5C557 144.7 600 140.3 642.8 145.3C685.7 150.3 728.3 164.7 771.2 163.5C814 162.3 857 145.7 878.5 137.3L900 129L900 201L878.5 201C857 201 814 201 771.2 201C728.3 201 685.7 201 642.8 201C600 201 557 201 514.2 201C471.3 201 428.7 201 385.8 201C343 201 300 201 257.2 201C214.3 201 171.7 201 128.8 201C86 201 43 201 21.5 201L0 201Z" fill="#0f172a"></path></svg>