<svg id="visual" viewBox="0 0 900 200" width="900" height="200" xmlns="http://www.w3.org/2000/svg" xmlns:xlink="http://www.w3.org/1999/xlink" version="1.1"><path d="M0 39L82 39L82 21L164 21L164 29L245 29L245 31L327 31L327 35L409 35L409 43L491 43L491 53L573 53L573 27L655 27L655 39L736 39L736 53L818 53L818 47L900 47L900 35L900 0L900 0L818 0L818 0L736 0L736 0L655 0L655 0L573 0L573 0L491 0L491 0L409 0L409 0L327 0L327 0L245 0L245 0L164 0L164 0L82 0L82 0L0 0Z" fill="#000000"></path><path d="M0 61L82 61L82 33L164 33L164 57L245 57L245 49L327 49L327 67L409 67L409 77L491 77L491 65L573 65L573 45L655 45L655 65L736 65L736 67L818 67L818 73L900 73L900 67L900 33L900 45L818 45L818 51L736 51L736 37L655 37L655 25L573 25L573 51L491 51L491 41L409 41L409 33L327 33L327 29L245 29L245 27L164 27L164 19L82 19L82 37L0 37Z" fill="#0d1115"></path><path d="M0 95L82 95L82 109L164 109L164 89L245 89L245 121L327 121L327 103L409 103L409 125L491 125L491 149L573 149L573 103L655 103L655 141L736 141L736 127L818 127L818 103L900 103L900 117L900 65L900 71L818 71L818 65L736 65L736 63L655 63L655 43L573 43L573 63L491 63L491 75L409 75L409 65L327 65L327 47L245 47L245 55L164 55L164 31L82 31L82 59L0 59Z" fill="#181b1f"></path><path d="M0 175L82 175L82 169L164 169L164 173L245 173L245 181L327 181L327 187L409 187L409 165L491 165L491 181L573 181L573 161L655 161L655 183L736 183L736 159L818 159L818 175L900 175L900 173L900 115L900 101L818 101L818 125L736 125L736 139L655 139L655 101L573 101L573 147L491 147L491 123L409 123L409 101L327 101L327 119L245 119L245 87L164 87L164 107L82 107L82 93L0 93Z" fill="#222529"></path><path d="M0 201L82 201L82 201L164 201L164 201L245 201L245 201L327 201L327 201L409 201L409 201L491 201L491 201L573 201L573 201L655 201L655 201L736 201L736 201L818 201L818 201L900 201L900 201L900 171L900 173L818 173L818 157L736 157L736 181L655 181L655 159L573 159L573 179L491 179L491 163L409 163L409 185L327 185L327 179L245 179L245 171L164 171L164 167L82 167L82 173L0 173Z" fill="#2c2f33"></path></svg>