<svg id="visual" viewBox="0 0 900 100" width="900" height="100" xmlns="http://www.w3.org/2000/svg" xmlns:xlink="http://www.w3.org/1999/xlink" version="1.1"><rect x="0" y="0" width="900" height="100" fill="#fff"></rect><path d="M0 32L100 32L100 52L200 52L200 27L300 27L300 68L400 68L400 30L500 30L500 70L600 70L600 54L700 54L700 37L800 37L800 53L900 53L900 62L900 0L900 0L800 0L800 0L700 0L700 0L600 0L600 0L500 0L500 0L400 0L400 0L300 0L300 0L200 0L200 0L100 0L100 0L0 0Z" fill="#2c2f33" stroke-linecap="square" stroke-linejoin="miter"></path></svg>